<?xml version="1.0" encoding="UTF-8"?>
<svg version="1.1" xmlns="http://www.w3.org/2000/svg" width="1080" height="700">
<path d="M0 0 C356.4 0 712.8 0 1080 0 C1080 231 1080 462 1080 700 C723.6 700 367.2 700 0 700 C0 469 0 238 0 0 Z " fill="#FEFEFE" transform="translate(0,0)"/>
<path d="M0 0 C6.12592606 0.68065845 11.22878604 6.20583242 15.75 10.125 C16.6773999 10.92393677 16.6773999 10.92393677 17.62353516 11.73901367 C21.31915898 14.94621402 24.86382016 18.23812333 28.265625 21.7578125 C30.54328931 24.04698016 32.99366869 26.1184608 35.44140625 28.22265625 C37.31217717 29.87152354 39.14449101 31.54272887 40.96484375 33.24609375 C41.80764893 34.03367065 41.80764893 34.03367065 42.66748047 34.8371582 C43.77514044 35.87529248 44.87982426 36.9166149 45.98095703 37.96166992 C49.24409458 41.01527123 52.61547326 43.63443943 56.28393555 46.18261719 C58.13509926 47.55095861 59.52966276 49.05829985 60.9375 50.875 C63.29861125 53.79465369 65.86796172 55.97419019 68.8125 58.3125 C68.8125 58.9725 68.8125 59.6325 68.8125 60.3125 C69.37710938 60.54710937 69.94171875 60.78171875 70.5234375 61.0234375 C73.35467336 62.61781947 75.19954177 64.58290551 77.4375 66.9375 C81.60020316 71.19858315 85.94319094 74.92502125 90.63671875 78.58203125 C93.24010273 80.65258619 95.52215957 82.90161534 97.8125 85.3125 C103.24971153 91.02577972 103.24971153 91.02577972 109.4375 95.875 C112.60824229 98.01525104 114.88000705 100.4859408 117.2578125 103.46875 C120.86618986 107.74803169 124.94680156 111.3297518 129.3125 114.8125 C133.05142921 117.79524128 136.45327209 120.90964575 139.8125 124.3125 C141.13336059 125.49326932 142.46579988 126.66128861 143.8125 127.8125 C147.64087661 131.13375956 151.20378385 134.64114941 154.71875 138.29296875 C158.71449032 142.46527436 158.71449032 142.46527436 163.375 145.8125 C166.61555388 147.806687 168.66749005 150.4497627 171.06640625 153.375 C172.76851823 155.39545657 172.76851823 155.39545657 175.02734375 156.9375 C175.61644531 157.39125 176.20554687 157.845 176.8125 158.3125 C176.8125 158.9725 176.8125 159.6325 176.8125 160.3125 C177.37453125 160.54582031 177.9365625 160.77914062 178.515625 161.01953125 C181.37984142 162.63187076 183.28502021 164.6318562 185.5625 167 C190.56049773 172.10104923 195.67408114 176.93954916 201.375 181.25 C204.28099331 183.70891742 206.63787188 186.45753291 209.1015625 189.3515625 C210.56907001 191.03350034 212.07395002 192.58606504 213.6875 194.125 C217.01432595 197.54967377 217.15598639 200.81718078 217.08984375 205.4765625 C216.70825994 209.37839135 215.68910553 213.03492903 214.65966797 216.8112793 C213.31902772 221.89640701 212.26561109 227.01239864 211.31640625 232.18359375 C211.12268433 233.23892052 211.12268433 233.23892052 210.92504883 234.31556702 C210.27347258 237.88869529 209.63545725 241.4639427 209.00732422 245.04125977 C206.62828763 258.38452604 206.62828763 258.38452604 203.8125 264.3125 C201.125 265.8125 201.125 265.8125 198.8125 266.3125 C198.8125 266.9725 198.8125 267.6325 198.8125 268.3125 C195.62859787 270.5315833 192.27337879 271.95660636 188.69921875 273.4296875 C186.61340147 274.40565997 184.74630222 275.56319644 182.8125 276.8125 C179.2866425 279.08834251 175.6890011 280.69141772 171.8125 282.3125 C170.63640021 282.96238064 169.46969426 283.62952343 168.3125 284.3125 C165.5783929 285.91795803 162.80919318 287.19849166 159.875 288.41015625 C155.09178881 290.50281115 150.47045685 292.95773953 145.8125 295.3125 C143.8130176 296.31353453 141.81302411 297.31354891 139.8125 298.3125 C138.8225 298.8075 137.8325 299.3025 136.8125 299.8125 C92.6875 321.875 92.6875 321.875 90.25390625 323.08984375 C88.57214503 323.93206977 86.89257773 324.77868617 85.21484375 325.62890625 C81.51286645 327.49943777 77.83127779 329.34528066 74 330.9375 C70.86244973 332.20729357 70.86244973 332.20729357 68.3125 333.8125 C65.26655197 335.64006882 62.07536272 336.91413026 58.8125 338.3125 C57.9875 338.8075 57.1625 339.3025 56.3125 339.8125 C53.92318787 341.24608728 51.51351162 342.30769647 48.9453125 343.375 C44.1411996 345.48669798 39.49445685 347.94560668 34.8125 350.3125 C32.8130176 351.31353453 30.81302411 352.31354891 28.8125 353.3125 C27.82507813 353.80621094 26.83765625 354.29992187 25.8203125 354.80859375 C-41.3125 388.375 -41.3125 388.375 -44.30078125 389.8671875 C-46.1752809 390.80570559 -48.04780213 391.74818949 -49.91796875 392.6953125 C-53.43780446 394.47386791 -56.93300446 396.20410375 -60.5625 397.75 C-65.88460184 400.04400941 -71.01669731 402.69854821 -76.1875 405.3125 C-78.22865031 406.33436539 -80.27030794 407.35521812 -82.3125 408.375 C-83.29605469 408.86742187 -84.27960937 409.35984375 -85.29296875 409.8671875 C-87.1893208 410.81408393 -89.08769343 411.75694696 -90.98828125 412.6953125 C-96.00704432 415.1774085 -96.00704432 415.1774085 -100.875 417.9375 C-103.19637643 419.31777788 -105.56460747 420.34016155 -108.0546875 421.375 C-113.85227022 423.92338801 -119.45406821 426.92746352 -125.1015625 429.7890625 C-129.98698645 432.25152686 -134.88870251 434.64687577 -139.86401367 436.92114258 C-145.81282828 439.64249606 -151.48959522 442.5631466 -157.04296875 446.03515625 C-159.98603973 447.78813295 -163.02217498 449.00913087 -166.1875 450.3125 C-167.0125 450.8075 -167.8375 451.3025 -168.6875 451.8125 C-171.14830919 453.28898552 -173.65387346 454.37247776 -176.29248047 455.48730469 C-179.25160665 456.77587032 -182.11973732 458.23255588 -185 459.6875 C-185.60529541 459.99204102 -186.21059082 460.29658203 -186.83422852 460.61035156 C-189.58206011 461.99317355 -192.32638698 463.38288446 -195.0703125 464.7734375 C-198.54056159 466.52448062 -201.98508592 468.22628659 -205.5625 469.75 C-210.88459748 472.04400753 -216.01672657 474.69849277 -221.1875 477.3125 C-223.1869824 478.31353453 -225.18697589 479.31354891 -227.1875 480.3125 C-228.17492187 480.80621094 -229.16234375 481.29992187 -230.1796875 481.80859375 C-285.3125 509.375 -285.3125 509.375 -288.3671875 510.89453125 C-290.06855058 511.74992571 -291.76352511 512.61845105 -293.4453125 513.51171875 C-297.98032362 515.90371481 -302.13696045 517.33497622 -307.1875 518.3125 C-308.1775 518.51875 -309.1675 518.725 -310.1875 518.9375 C-319.053043 517.09051188 -325.24364254 505.1611712 -330.1875 498.3125 C-330.89261719 497.34441406 -331.59773438 496.37632812 -332.32421875 495.37890625 C-333.66751344 493.53411487 -335.00873902 491.68781466 -336.34765625 489.83984375 C-338.92316081 486.30194258 -341.55157146 482.80546542 -344.1875 479.3125 C-345.18791897 477.979481 -346.18791438 476.64614402 -347.1875 475.3125 C-347.6825 474.6525 -348.1775 473.9925 -348.6875 473.3125 C-353.1875 467.3125 -353.1875 467.3125 -354.671875 465.32421875 C-355.71243388 463.94306457 -356.76523438 462.57107421 -357.828125 461.20703125 C-360.59372787 457.62920035 -362.52329649 454.53701661 -364.1875 450.3125 C-365.1775 449.9825 -366.1675 449.6525 -367.1875 449.3125 C-370.1875 444.97916667 -370.1875 444.97916667 -370.1875 442.3125 C-371.1775 441.9825 -372.1675 441.6525 -373.1875 441.3125 C-374.51171875 439.6328125 -374.51171875 439.6328125 -375.875 437.4375 C-381.21914962 429.0963831 -387.22291317 421.21639238 -393.1875 413.3125 C-394.18791897 411.979481 -395.18791438 410.64614402 -396.1875 409.3125 C-396.6825 408.6525 -397.1775 407.9925 -397.6875 407.3125 C-411.84375 388.4375 -411.84375 388.4375 -426 369.5625 C-426.48984375 368.91023438 -426.9796875 368.25796875 -427.484375 367.5859375 C-428.78967053 365.8435476 -430.09101704 364.09819873 -431.390625 362.3515625 C-437.27248986 353.25433189 -437.27248986 353.25433189 -445.1875 346.3125 C-445.1875 345.6525 -445.1875 344.9925 -445.1875 344.3125 C-452.37958736 346.11925354 -458.2417144 348.74581736 -464.5 352.6875 C-465.34159668 353.2040918 -466.18319336 353.72068359 -467.05029297 354.25292969 C-469.77075419 355.92682822 -472.48008982 357.6175825 -475.1875 359.3125 C-478.11897793 361.14314816 -481.05100641 362.97287492 -483.98510742 364.79931641 C-485.84673249 365.96024001 -487.70507044 367.12645413 -489.55981445 368.29833984 C-490.39859131 368.82379395 -491.23736816 369.34924805 -492.1015625 369.890625 C-493.2145874 370.59300293 -493.2145874 370.59300293 -494.35009766 371.30957031 C-496.1875 372.3125 -496.1875 372.3125 -498.1875 372.3125 C-498.5175 373.3025 -498.8475 374.2925 -499.1875 375.3125 C-500.84124298 376.01060914 -502.51186222 376.66871413 -504.1875 377.3125 C-506.81516006 378.85822647 -509.33730732 380.56162166 -511.875 382.25 C-518.23825062 386.42226694 -524.6436527 390.51334511 -531.125 394.5 C-532.28745239 395.22207642 -532.28745239 395.22207642 -533.47338867 395.95874023 C-534.55197144 396.61918335 -534.55197144 396.61918335 -535.65234375 397.29296875 C-536.287771 397.68379639 -536.92319824 398.07462402 -537.57788086 398.47729492 C-539.1875 399.3125 -539.1875 399.3125 -541.1875 399.3125 C-541.5175 400.3025 -541.8475 401.2925 -542.1875 402.3125 C-543.82808867 403.04098545 -545.5002986 403.69965935 -547.1875 404.3125 C-548.74353475 405.21863877 -550.27572231 406.16663264 -551.78515625 407.1484375 C-552.66002686 407.71280518 -553.53489746 408.27717285 -554.4362793 408.85864258 C-555.36480713 409.46216553 -556.29333496 410.06568848 -557.25 410.6875 C-564.89667605 415.6056462 -572.58192037 420.44181451 -580.375 425.125 C-581.63872437 425.88852783 -581.63872437 425.88852783 -582.92797852 426.66748047 C-583.70842529 427.13428223 -584.48887207 427.60108398 -585.29296875 428.08203125 C-585.97512451 428.49042236 -586.65728027 428.89881348 -587.36010742 429.31958008 C-589.1875 430.3125 -589.1875 430.3125 -592.1875 431.3125 C-592.5175 432.3025 -592.8475 433.2925 -593.1875 434.3125 C-595.16723633 435.50805664 -595.16723633 435.50805664 -597.70703125 436.66015625 C-602.68852504 439.02939252 -607.25424031 441.74891946 -611.875 444.75 C-620.19644405 450.08715554 -628.61237597 455.24997403 -637.09448242 460.32788086 C-641.58734568 463.03746346 -645.96989802 465.81751497 -650.24609375 468.859375 C-655.0702253 472.28566141 -660.06648108 475.29220713 -665.1875 478.25 C-680.84970641 487.40645 -696.38832252 496.80210133 -711.5625 506.75 C-729.11736742 518.24766724 -747.2938164 528.85164385 -765.3828125 539.48046875 C-774.96099538 545.10630712 -774.96099538 545.10630712 -784.375 551 C-786.7747751 552.5136306 -788.92431976 553.62633064 -791.5625 554.75 C-794.6695437 556.08924298 -797.31738459 557.54794264 -800.1875 559.3125 C-804.08635352 561.70230931 -807.9505737 563.57233384 -812.1875 565.3125 C-813.30898438 565.95058594 -813.30898438 565.95058594 -814.453125 566.6015625 C-820.02266773 569.73661957 -824.45267395 570.88466078 -830.83984375 570.9765625 C-833.1875 570.3125 -833.1875 570.3125 -834.8984375 568.4375 C-841.142192 553.30112545 -843.04734814 525.76901646 -838.109375 510.1640625 C-836.45685163 506.58359519 -834.50873755 503.47609424 -832.1875 500.3125 C-831.67251953 499.5812793 -831.15753906 498.85005859 -830.62695312 498.09667969 C-827.14234365 493.15715595 -823.54092294 488.31929408 -819.86621094 483.52001953 C-818.3362595 481.50812003 -816.83654663 479.47879752 -815.3515625 477.43359375 C-814.9376123 476.86656738 -814.52366211 476.29954102 -814.09716797 475.71533203 C-813.01701579 474.23404545 -811.93814434 472.75182521 -810.859375 471.26953125 C-810.30765625 470.62371094 -809.7559375 469.97789062 -809.1875 469.3125 C-808.5275 469.3125 -807.8675 469.3125 -807.1875 469.3125 C-806.5275 467.6625 -805.8675 466.0125 -805.1875 464.3125 C-804.5275 464.3125 -803.8675 464.3125 -803.1875 464.3125 C-802.9503125 463.78140625 -802.713125 463.2503125 -802.46875 462.703125 C-800.81371616 459.61507405 -798.78201872 456.8596528 -796.6875 454.0625 C-796.28402344 453.50820313 -795.88054688 452.95390625 -795.46484375 452.3828125 C-794.42299829 450.98680835 -793.31004588 449.64447608 -792.1875 448.3125 C-791.5275 448.3125 -790.8675 448.3125 -790.1875 448.3125 C-789.960625 447.796875 -789.73375 447.28125 -789.5 446.75 C-787.70532382 443.41702995 -785.68784985 440.16546329 -783.1875 437.3125 C-782.5275 437.3125 -781.8675 437.3125 -781.1875 437.3125 C-780.919375 436.74015625 -780.65125 436.1678125 -780.375 435.578125 C-779.14617364 433.23365366 -777.76227824 431.18845062 -776.1875 429.0625 C-775.4140625 428.00289063 -775.4140625 428.00289063 -774.625 426.921875 C-774.150625 426.39078125 -773.67625 425.8596875 -773.1875 425.3125 C-772.5275 425.3125 -771.8675 425.3125 -771.1875 425.3125 C-770.89875 424.714375 -770.61 424.11625 -770.3125 423.5 C-769.1875 421.3125 -769.1875 421.3125 -767.1875 418.3125 C-766.5275 418.3125 -765.8675 418.3125 -765.1875 418.3125 C-764.919375 417.74015625 -764.65125 417.1678125 -764.375 416.578125 C-763.14617364 414.23365366 -761.76227824 412.18845062 -760.1875 410.0625 C-759.4140625 409.00289063 -759.4140625 409.00289063 -758.625 407.921875 C-758.150625 407.39078125 -757.67625 406.8596875 -757.1875 406.3125 C-756.5275 406.3125 -755.8675 406.3125 -755.1875 406.3125 C-754.89875 405.714375 -754.61 405.11625 -754.3125 404.5 C-753.1875 402.3125 -753.1875 402.3125 -751.1875 399.3125 C-750.5275 399.3125 -749.8675 399.3125 -749.1875 399.3125 C-748.97222656 398.78914063 -748.75695312 398.26578125 -748.53515625 397.7265625 C-746.64713604 394.34454369 -744.1629736 391.5991829 -741.625 388.6875 C-738.04176322 384.75429069 -738.04176322 384.75429069 -735.1875 380.3125 C-734.5275 380.3125 -733.8675 380.3125 -733.1875 380.3125 C-732.89875 379.714375 -732.61 379.11625 -732.3125 378.5 C-731.1875 376.3125 -731.1875 376.3125 -729.1875 373.3125 C-728.5275 373.3125 -727.8675 373.3125 -727.1875 373.3125 C-726.96835937 372.78398437 -726.74921875 372.25546875 -726.5234375 371.7109375 C-724.69677168 368.43148482 -722.27645207 365.74480565 -719.8125 362.9375 C-718.7278253 361.68623196 -717.64319106 360.43492886 -716.55859375 359.18359375 C-716.00155762 358.54405762 -715.44452148 357.90452148 -714.87060547 357.24560547 C-712.19504789 354.17263405 -709.53236908 351.08870524 -706.875 348 C-706.37516602 347.42056641 -705.87533203 346.84113281 -705.36035156 346.24414062 C-701.90284944 342.21307552 -698.62715702 338.07819991 -695.4921875 333.7890625 C-695.06164062 333.30179687 -694.63109375 332.81453125 -694.1875 332.3125 C-693.5275 332.3125 -692.8675 332.3125 -692.1875 332.3125 C-691.89875 331.714375 -691.61 331.11625 -691.3125 330.5 C-690.1875 328.3125 -690.1875 328.3125 -688.1875 325.3125 C-687.5275 325.3125 -686.8675 325.3125 -686.1875 325.3125 C-685.89875 324.714375 -685.61 324.11625 -685.3125 323.5 C-684.1875 321.3125 -684.1875 321.3125 -682.1875 318.3125 C-681.5275 318.3125 -680.8675 318.3125 -680.1875 318.3125 C-679.96835937 317.78398437 -679.74921875 317.25546875 -679.5234375 316.7109375 C-677.69677168 313.43148482 -675.27645207 310.74480565 -672.8125 307.9375 C-671.7278253 306.68623196 -670.64319106 305.43492886 -669.55859375 304.18359375 C-669.00155762 303.54405762 -668.44452148 302.90452148 -667.87060547 302.24560547 C-665.19504789 299.17263405 -662.53236908 296.08870524 -659.875 293 C-659.37516602 292.42056641 -658.87533203 291.84113281 -658.36035156 291.24414062 C-654.90284944 287.21307552 -651.62715702 283.07819991 -648.4921875 278.7890625 C-648.06164062 278.30179687 -647.63109375 277.81453125 -647.1875 277.3125 C-646.5275 277.3125 -645.8675 277.3125 -645.1875 277.3125 C-644.89875 276.714375 -644.61 276.11625 -644.3125 275.5 C-643.1875 273.3125 -643.1875 273.3125 -641.1875 270.3125 C-640.5275 270.3125 -639.8675 270.3125 -639.1875 270.3125 C-638.9296875 269.73628906 -638.671875 269.16007812 -638.40625 268.56640625 C-637.0826324 266.11856215 -635.5574228 264.30612273 -633.6875 262.25 C-631.62934439 259.97817993 -629.89611829 257.87542743 -628.1875 255.3125 C-627.5275 255.3125 -626.8675 255.3125 -626.1875 255.3125 C-625.89875 254.714375 -625.61 254.11625 -625.3125 253.5 C-624.1875 251.3125 -624.1875 251.3125 -622.1875 248.3125 C-621.5275 248.3125 -620.8675 248.3125 -620.1875 248.3125 C-619.89875 247.714375 -619.61 247.11625 -619.3125 246.5 C-618.1875 244.3125 -618.1875 244.3125 -616.1875 241.3125 C-615.5275 241.3125 -614.8675 241.3125 -614.1875 241.3125 C-613.97222656 240.78785156 -613.75695312 240.26320313 -613.53515625 239.72265625 C-611.65896489 236.36726475 -609.1530286 233.62115737 -606.625 230.75 C-601.91395444 225.34661452 -597.36302478 219.86161026 -592.9296875 214.2265625 C-592.35476563 213.59492188 -591.77984375 212.96328125 -591.1875 212.3125 C-590.5275 212.3125 -589.8675 212.3125 -589.1875 212.3125 C-588.96707031 211.78269531 -588.74664063 211.25289062 -588.51953125 210.70703125 C-586.70937007 207.45298784 -584.317928 204.78568575 -581.875 202 C-581.34519531 201.38898438 -580.81539062 200.77796875 -580.26953125 200.1484375 C-579.14680624 198.85440469 -578.02225046 197.56195832 -576.89599609 196.27099609 C-574.69319108 193.74586008 -572.49939526 191.21298263 -570.30541992 188.68017578 C-569.22652748 187.43473634 -568.14726287 186.18961921 -567.06762695 184.94482422 C-563.22365843 180.5125463 -559.38723233 176.0738911 -555.5625 171.625 C-555.06556641 171.04878906 -554.56863281 170.47257813 -554.05664062 169.87890625 C-552.10860687 167.60935236 -550.21622956 165.35270826 -548.4765625 162.91796875 C-548.05117188 162.38816406 -547.62578125 161.85835937 -547.1875 161.3125 C-546.5275 161.3125 -545.8675 161.3125 -545.1875 161.3125 C-544.960625 160.76722656 -544.73375 160.22195312 -544.5 159.66015625 C-542.78736449 156.59678143 -540.58396955 154.31018186 -538.1875 151.75 C-535.61305742 148.99220322 -533.28113537 146.45295306 -531.1875 143.3125 C-530.5275 143.3125 -529.8675 143.3125 -529.1875 143.3125 C-528.8471875 142.508125 -528.8471875 142.508125 -528.5 141.6875 C-526.73179911 138.48789839 -524.65079797 136.02212777 -522.1875 133.3125 C-521.5275 133.3125 -520.8675 133.3125 -520.1875 133.3125 C-519.94 132.75046875 -519.6925 132.1884375 -519.4375 131.609375 C-517.97475133 128.92157431 -516.21945127 126.84844518 -514.1875 124.5625 C-513.48625 123.76328125 -512.785 122.9640625 -512.0625 122.140625 C-510.1875 120.3125 -510.1875 120.3125 -508.1875 120.3125 C-507.960625 119.77625 -507.73375 119.24 -507.5 118.6875 C-505.73179911 115.48789839 -503.65079797 113.02212777 -501.1875 110.3125 C-500.5275 110.3125 -499.8675 110.3125 -499.1875 110.3125 C-498.81625 109.46945313 -498.81625 109.46945313 -498.4375 108.609375 C-496.97475133 105.92157431 -495.21945127 103.84844518 -493.1875 101.5625 C-492.48625 100.76328125 -491.785 99.9640625 -491.0625 99.140625 C-489.1875 97.3125 -489.1875 97.3125 -487.1875 97.3125 C-486.91873047 96.72154541 -486.64996094 96.13059082 -486.37304688 95.52172852 C-485.18455118 93.30700496 -483.94773243 91.77690923 -482.21875 89.96484375 C-481.36216797 89.05702148 -481.36216797 89.05702148 -480.48828125 88.13085938 C-479.89402344 87.51017578 -479.29976563 86.88949219 -478.6875 86.25 C-477.50851817 85.01091823 -476.33136127 83.77009686 -475.15625 82.52734375 C-474.63482422 81.98198975 -474.11339844 81.43663574 -473.57617188 80.87475586 C-471.98150866 79.15322536 -471.98150866 79.15322536 -470.1875 76.3125 C-469.5275 76.3125 -468.8675 76.3125 -468.1875 76.3125 C-467.960625 75.77625 -467.73375 75.24 -467.5 74.6875 C-465.73179911 71.48789839 -463.65079797 69.02212777 -461.1875 66.3125 C-460.5275 66.3125 -459.8675 66.3125 -459.1875 66.3125 C-458.81625 65.46945313 -458.81625 65.46945313 -458.4375 64.609375 C-456.97475133 61.92157431 -455.21945127 59.84844518 -453.1875 57.5625 C-452.48625 56.76328125 -451.785 55.9640625 -451.0625 55.140625 C-449.1875 53.3125 -449.1875 53.3125 -447.1875 53.3125 C-446.84525391 52.48105469 -446.84525391 52.48105469 -446.49609375 51.6328125 C-444.81555134 48.65298506 -442.68638301 46.5845288 -440.25 44.1875 C-439.37472656 43.31867188 -438.49945313 42.44984375 -437.59765625 41.5546875 C-435.1875 39.3125 -435.1875 39.3125 -432.1875 37.3125 C-427.21400337 37.52873898 -424.85520673 39.07956702 -421.1875 42.3125 C-419.72569494 43.98237221 -418.31021018 45.69364966 -416.9375 47.4375 C-412.54535336 52.91673942 -407.9118008 58.12010334 -403.1875 63.3125 C-399.63339669 67.25908098 -396.20819805 71.21768841 -393.0625 75.5 C-390.67816406 78.74219225 -388.07349187 81.49865793 -385.1875 84.3125 C-381.65954908 88.21447436 -378.3861123 92.31207034 -375.125 96.4375 C-373.03695938 99.06732389 -371.00197215 101.49802785 -368.625 103.875 C-366.4083156 106.0916844 -364.58612803 108.32590974 -362.6875 110.8125 C-360.0522549 114.25641474 -357.2944844 117.27949142 -354.1875 120.3125 C-345.78351188 129.28598914 -345.78351188 129.28598914 -342.4375 134.125 C-340.22912682 137.25352867 -337.92220881 139.63994366 -335.1875 142.3125 C-329.88246051 147.99428894 -324.8655984 153.8397446 -320.109375 159.98828125 C-317.94845217 162.6015924 -315.59581004 164.92578915 -313.1875 167.3125 C-310.82836132 169.85522103 -308.51554343 172.44038534 -306.20507812 175.02734375 C-301.65052138 180.29180306 -301.65052138 180.29180306 -295.4375 182.75 C-291.71398831 182.24875804 -289.17265672 181.00188979 -285.921875 179.1875 C-284.1875 178.3125 -284.1875 178.3125 -282.1875 178.3125 C-282.1875 177.6525 -282.1875 176.9925 -282.1875 176.3125 C-280.89836513 175.64095067 -279.60609796 174.97541141 -278.3125 174.3125 C-277.59320312 173.94125 -276.87390625 173.57 -276.1328125 173.1875 C-274.1875 172.3125 -274.1875 172.3125 -272.1875 172.3125 C-271.8575 171.3225 -271.5275 170.3325 -271.1875 169.3125 C-269.41943359 168.01660156 -269.41943359 168.01660156 -267.0859375 166.703125 C-266.21549805 166.20385498 -265.34505859 165.70458496 -264.44824219 165.19018555 C-263.0197998 164.3844812 -263.0197998 164.3844812 -261.5625 163.5625 C-253.52860094 158.92932133 -245.67162878 154.11780589 -237.9375 149 C-229.41780074 143.37772118 -220.81632256 137.91384868 -212.125 132.5625 C-211.02446289 131.88276123 -209.92392578 131.20302246 -208.79003906 130.50268555 C-207.75459961 129.86758057 -206.71916016 129.23247559 -205.65234375 128.578125 C-204.28517212 127.73942871 -204.28517212 127.73942871 -202.89038086 126.88378906 C-200.95331556 125.75769817 -198.96834654 124.71250839 -196.95800781 123.72314453 C-194.16839098 122.48914396 -194.16839098 122.48914396 -192.39453125 120.4765625 C-189.01108794 117.15899154 -184.95729615 115.05520889 -180.875 112.6875 C-174.76405165 109.08651297 -168.73119762 105.44051272 -162.875 101.4375 C-155.46631149 96.38555166 -147.80961133 91.759187 -140.12963867 87.13330078 C-134.3410449 83.65621339 -134.3410449 83.65621339 -128.69140625 79.9609375 C-126.1875 78.3125 -126.1875 78.3125 -123.1875 77.3125 C-122.39279297 76.46558594 -122.39279297 76.46558594 -121.58203125 75.6015625 C-118.0928053 72.26602187 -114.03551623 70.10063828 -109.875 67.6875 C-103.72564362 64.06299376 -97.6503175 60.39346942 -91.75 56.375 C-85.8306597 52.34916154 -79.78879224 48.55647478 -73.6875 44.8125 C-67.54800985 41.04408927 -61.46429293 37.22793239 -55.5 33.1875 C-49.96037868 29.43990587 -44.3288577 25.86772406 -38.625 22.375 C-37.87452393 21.91399902 -37.12404785 21.45299805 -36.35083008 20.97802734 C-33.24252016 19.0879004 -30.19642377 17.31676512 -26.91015625 15.74609375 C-24.06848918 14.24983576 -22.39750331 12.61215862 -20.1875 10.3125 C-14.82068972 6.63574053 -9.20540724 3.74527101 -3.1875 1.3125 C-2.1875 0.3125 -2.1875 0.3125 0 0 Z " fill="#FD6F22" transform="translate(850.1875,77.6875)"/>
</svg>
